<svg width="50" height="50" viewBox="0 0 50 50" fill="none" xmlns="http://www.w3.org/2000/svg">
<g clip-path="url(#clip0_705_7050)">
<path d="M49.1667 44.3982V24.9995C49.1644 24.8706 49.1315 24.7441 49.0708 24.6303H49.0792L47.0392 20.5469C46.8327 20.1309 46.5138 19.781 46.1186 19.5369C45.7234 19.2928 45.2678 19.1644 44.8033 19.1661H39.1667V18.3327C39.1666 18.1117 39.0788 17.8998 38.9225 17.7435L34.4108 13.2318C34.111 12.935 33.74 12.7201 33.3333 12.6076V6.9867L35 6.5392V8.5634C34.9995 8.98473 35.1033 9.39963 35.3021 9.77112C35.5008 10.1426 35.7884 10.4592 36.1392 10.6926C36.3231 10.8153 36.5481 10.8599 36.7649 10.8166C36.9817 10.7733 37.1723 10.6456 37.295 10.4618C37.4177 10.2779 37.4623 10.0528 37.419 9.83603C37.3757 9.61926 37.2481 9.42857 37.0642 9.30591C36.9418 9.22458 36.8414 9.11421 36.772 8.98465C36.7027 8.85508 36.6665 8.71036 36.6667 8.5634V6.01835C36.9519 5.85359 37.1819 5.608 37.3277 5.31258C37.4735 5.01717 37.5284 4.68518 37.4856 4.35855C37.4428 4.03193 37.3042 3.72531 37.0872 3.47743C36.8703 3.22954 36.5847 3.0515 36.2667 2.9658L25.4283 0.0557556C25.1477 -0.0192362 24.8523 -0.0192362 24.5717 0.0557556L13.7333 2.9658C13.3788 3.06261 13.0658 3.2733 12.8428 3.56544C12.6197 3.85757 12.4989 4.21494 12.4989 4.5825C12.4989 4.95006 12.6197 5.30743 12.8428 5.59956C13.0658 5.89169 13.3788 6.10239 13.7333 6.19919L16.6667 6.9867V12.4993H16.6142C16.2482 12.4995 15.8868 12.5802 15.5555 12.7357C15.2243 12.8913 14.9314 13.1178 14.6975 13.3993L11.0308 17.7994C10.9045 17.9485 10.8346 18.1373 10.8333 18.3327V19.1661H5.19667C4.73211 19.1645 4.2764 19.293 3.88121 19.5373C3.48603 19.7815 3.16718 20.1315 2.96083 20.5478L0.920833 24.6312H0.929167C0.8686 24.7447 0.83576 24.8709 0.833333 24.9995V44.3982C0.580799 44.5433 0.370868 44.7523 0.224602 45.0041C0.078336 45.256 0.000878287 45.5419 0 45.8332L0 47.4999C0 47.9419 0.175595 48.3658 0.488155 48.6784C0.800716 48.991 1.22464 49.1666 1.66667 49.1666H12.7317C12.8768 49.4191 13.0858 49.629 13.3376 49.7753C13.5895 49.9216 13.8754 49.999 14.1667 49.9999H35.8333C36.1246 49.999 36.4105 49.9216 36.6624 49.7753C36.9142 49.629 37.1232 49.4191 37.2683 49.1666H48.3333C48.7754 49.1666 49.1993 48.991 49.5118 48.6784C49.8244 48.3658 50 47.9419 50 47.4999V45.8332C49.9991 45.5419 49.9217 45.256 49.7754 45.0041C49.6291 44.7523 49.4192 44.5433 49.1667 44.3982ZM36.6667 44.1665H35.8333V25.8329H47.5V44.1665H36.6667ZM27.5 44.1665H22.5V34.9997H27.5V44.1665ZM28.3333 33.333H21.6667C21.4457 33.333 21.2337 33.4208 21.0774 33.5771C20.9211 33.7333 20.8333 33.9453 20.8333 34.1663V44.1665H15.8333V25.8329H34.1667V44.1665H29.1667V34.1663C29.1667 33.9453 29.0789 33.7333 28.9226 33.5771C28.7663 33.4208 28.5543 33.333 28.3333 33.333ZM37.5 19.1661V20.8328H12.5V19.1661H37.5ZM35.8333 22.4995V24.1662H14.1667V22.4995H35.8333ZM44.8033 20.8328C44.9582 20.8323 45.1101 20.8752 45.2417 20.9566C45.3734 21.0381 45.4796 21.1548 45.5483 21.2936L46.985 24.1662H37.5V22.4995C37.942 22.4995 38.366 22.3239 38.6785 22.0113C38.9911 21.6987 39.1667 21.2748 39.1667 20.8328H44.8033ZM25 1.66578L35.845 4.5825H35.8333L25 7.49921L14.1667 4.57583L25 1.66578ZM18.3333 7.43421L24.5717 9.10924C24.8522 9.18478 25.1478 9.18478 25.4283 9.10924L31.6667 7.43421V12.4993H18.3333V7.43421ZM15.9742 14.466C16.0523 14.3721 16.1502 14.2966 16.2608 14.2448C16.3714 14.1929 16.492 14.166 16.6142 14.166H32.6425C32.7521 14.1659 32.8606 14.1874 32.9618 14.2293C33.0631 14.2712 33.155 14.3327 33.2325 14.4102L36.3217 17.4994H13.4458L15.9742 14.466ZM4.45167 21.2936C4.52036 21.1548 4.62658 21.0381 4.75826 20.9566C4.88995 20.8752 5.04183 20.8323 5.19667 20.8328H10.8333C10.8333 21.2748 11.0089 21.6987 11.3215 22.0113C11.634 22.3239 12.058 22.4995 12.5 22.4995V24.1662H3.015L4.45167 21.2936ZM1.66667 45.8332H12.5V47.4999H1.66667V45.8332ZM13.3333 44.1665H2.5V25.8329H14.1667V44.1665H13.3333ZM14.1667 48.3332V45.8332H35.8333V48.3332H14.1667ZM48.3333 47.4999H37.5V45.8332H48.3333V47.4999Z" fill="#03045E"/>
<path d="M22.5 27.4995C22.2789 27.4995 22.067 27.5873 21.9107 27.7436C21.7544 27.8999 21.6666 28.1118 21.6666 28.3329V29.9996C21.6666 30.2206 21.7544 30.4325 21.9107 30.5888C22.067 30.7451 22.2789 30.8329 22.5 30.8329C22.721 30.8329 22.9329 30.7451 23.0892 30.5888C23.2455 30.4325 23.3333 30.2206 23.3333 29.9996V28.3329C23.3333 28.1118 23.2455 27.8999 23.0892 27.7436C22.9329 27.5873 22.721 27.4995 22.5 27.4995Z" fill="#03045E"/>
<path d="M10.8333 28.333C10.6123 28.333 10.4004 28.4208 10.2441 28.5771C10.0878 28.7334 10 28.9453 10 29.1664V30.833C10 31.0541 10.0878 31.266 10.2441 31.4223C10.4004 31.5786 10.6123 31.6664 10.8333 31.6664C11.0543 31.6664 11.2663 31.5786 11.4226 31.4223C11.5789 31.266 11.6667 31.0541 11.6667 30.833V29.1664C11.6667 28.9453 11.5789 28.7334 11.4226 28.5771C11.2663 28.4208 11.0543 28.333 10.8333 28.333Z" fill="#03045E"/>
<path d="M5.83333 28.333C5.61232 28.333 5.40036 28.4208 5.24408 28.5771C5.0878 28.7334 5 28.9453 5 29.1664V30.833C5 31.0541 5.0878 31.266 5.24408 31.4223C5.40036 31.5786 5.61232 31.6664 5.83333 31.6664C6.05435 31.6664 6.26631 31.5786 6.42259 31.4223C6.57887 31.266 6.66667 31.0541 6.66667 30.833V29.1664C6.66667 28.9453 6.57887 28.7334 6.42259 28.5771C6.26631 28.4208 6.05435 28.333 5.83333 28.333Z" fill="#03045E"/>
<path d="M10.8333 33.333C10.6123 33.333 10.4004 33.4208 10.2441 33.5771C10.0878 33.7334 10 33.9453 10 34.1664V35.833C10 36.0541 10.0878 36.266 10.2441 36.4223C10.4004 36.5786 10.6123 36.6664 10.8333 36.6664C11.0543 36.6664 11.2663 36.5786 11.4226 36.4223C11.5789 36.266 11.6667 36.0541 11.6667 35.833V34.1664C11.6667 33.9453 11.5789 33.7334 11.4226 33.5771C11.2663 33.4208 11.0543 33.333 10.8333 33.333Z" fill="#03045E"/>
<path d="M5.83333 33.333C5.61232 33.333 5.40036 33.4208 5.24408 33.5771C5.0878 33.7334 5 33.9453 5 34.1664V35.833C5 36.0541 5.0878 36.266 5.24408 36.4223C5.40036 36.5786 5.61232 36.6664 5.83333 36.6664C6.05435 36.6664 6.26631 36.5786 6.42259 36.4223C6.57887 36.266 6.66667 36.0541 6.66667 35.833V34.1664C6.66667 33.9453 6.57887 33.7334 6.42259 33.5771C6.26631 33.4208 6.05435 33.333 5.83333 33.333Z" fill="#03045E"/>
<path d="M10.8333 38.333C10.6123 38.333 10.4004 38.4208 10.2441 38.5771C10.0878 38.7334 10 38.9453 10 39.1664V40.833C10 41.0541 10.0878 41.266 10.2441 41.4223C10.4004 41.5786 10.6123 41.6664 10.8333 41.6664C11.0543 41.6664 11.2663 41.5786 11.4226 41.4223C11.5789 41.266 11.6667 41.0541 11.6667 40.833V39.1664C11.6667 38.9453 11.5789 38.7334 11.4226 38.5771C11.2663 38.4208 11.0543 38.333 10.8333 38.333Z" fill="#03045E"/>
<path d="M5.83333 38.333C5.61232 38.333 5.40036 38.4208 5.24408 38.5771C5.0878 38.7334 5 38.9453 5 39.1664V40.833C5 41.0541 5.0878 41.266 5.24408 41.4223C5.40036 41.5786 5.61232 41.6664 5.83333 41.6664C6.05435 41.6664 6.26631 41.5786 6.42259 41.4223C6.57887 41.266 6.66667 41.0541 6.66667 40.833V39.1664C6.66667 38.9453 6.57887 38.7334 6.42259 38.5771C6.26631 38.4208 6.05435 38.333 5.83333 38.333Z" fill="#03045E"/>
<path d="M44.1667 28.333C43.9457 28.333 43.7337 28.4208 43.5775 28.5771C43.4212 28.7334 43.3334 28.9453 43.3334 29.1664V30.833C43.3334 31.0541 43.4212 31.266 43.5775 31.4223C43.7337 31.5786 43.9457 31.6664 44.1667 31.6664C44.3877 31.6664 44.5997 31.5786 44.756 31.4223C44.9122 31.266 45 31.0541 45 30.833V29.1664C45 28.9453 44.9122 28.7334 44.756 28.5771C44.5997 28.4208 44.3877 28.333 44.1667 28.333Z" fill="#03045E"/>
<path d="M39.1667 28.333C38.9457 28.333 38.7337 28.4208 38.5775 28.5771C38.4212 28.7334 38.3334 28.9453 38.3334 29.1664V30.833C38.3334 31.0541 38.4212 31.266 38.5775 31.4223C38.7337 31.5786 38.9457 31.6664 39.1667 31.6664C39.3877 31.6664 39.5997 31.5786 39.756 31.4223C39.9122 31.266 40 31.0541 40 30.833V29.1664C40 28.9453 39.9122 28.7334 39.756 28.5771C39.5997 28.4208 39.3877 28.333 39.1667 28.333Z" fill="#03045E"/>
<path d="M44.1667 33.333C43.9457 33.333 43.7337 33.4208 43.5775 33.5771C43.4212 33.7334 43.3334 33.9453 43.3334 34.1664V35.833C43.3334 36.0541 43.4212 36.266 43.5775 36.4223C43.7337 36.5786 43.9457 36.6664 44.1667 36.6664C44.3877 36.6664 44.5997 36.5786 44.756 36.4223C44.9122 36.266 45 36.0541 45 35.833V34.1664C45 33.9453 44.9122 33.7334 44.756 33.5771C44.5997 33.4208 44.3877 33.333 44.1667 33.333Z" fill="#03045E"/>
<path d="M39.1667 33.333C38.9457 33.333 38.7337 33.4208 38.5775 33.5771C38.4212 33.7334 38.3334 33.9453 38.3334 34.1664V35.833C38.3334 36.0541 38.4212 36.266 38.5775 36.4223C38.7337 36.5786 38.9457 36.6664 39.1667 36.6664C39.3877 36.6664 39.5997 36.5786 39.756 36.4223C39.9122 36.266 40 36.0541 40 35.833V34.1664C40 33.9453 39.9122 33.7334 39.756 33.5771C39.5997 33.4208 39.3877 33.333 39.1667 33.333Z" fill="#03045E"/>
<path d="M44.1667 38.333C43.9457 38.333 43.7337 38.4208 43.5775 38.5771C43.4212 38.7334 43.3334 38.9453 43.3334 39.1664V40.833C43.3334 41.0541 43.4212 41.266 43.5775 41.4223C43.7337 41.5786 43.9457 41.6664 44.1667 41.6664C44.3877 41.6664 44.5997 41.5786 44.756 41.4223C44.9122 41.266 45 41.0541 45 40.833V39.1664C45 38.9453 44.9122 38.7334 44.756 38.5771C44.5997 38.4208 44.3877 38.333 44.1667 38.333Z" fill="#03045E"/>
<path d="M39.1667 38.333C38.9457 38.333 38.7337 38.4208 38.5775 38.5771C38.4212 38.7334 38.3334 38.9453 38.3334 39.1664V40.833C38.3334 41.0541 38.4212 41.266 38.5775 41.4223C38.7337 41.5786 38.9457 41.6664 39.1667 41.6664C39.3877 41.6664 39.5997 41.5786 39.756 41.4223C39.9122 41.266 40 41.0541 40 40.833V39.1664C40 38.9453 39.9122 38.7334 39.756 38.5771C39.5997 38.4208 39.3877 38.333 39.1667 38.333Z" fill="#03045E"/>
<path d="M27.5 27.4995C27.2789 27.4995 27.067 27.5873 26.9107 27.7436C26.7544 27.8999 26.6666 28.1118 26.6666 28.3329V29.9996C26.6666 30.2206 26.7544 30.4325 26.9107 30.5888C27.067 30.7451 27.2789 30.8329 27.5 30.8329C27.721 30.8329 27.9329 30.7451 28.0892 30.5888C28.2455 30.4325 28.3333 30.2206 28.3333 29.9996V28.3329C28.3333 28.1118 28.2455 27.8999 28.0892 27.7436C27.9329 27.5873 27.721 27.4995 27.5 27.4995Z" fill="#03045E"/>
</g>
<defs>
<clipPath id="clip0_705_7050">
<rect width="50" height="50" fill="white"/>
</clipPath>
</defs>
</svg>
