<svg width="50" height="50" viewBox="0 0 50 50" fill="none" xmlns="http://www.w3.org/2000/svg">
<g clip-path="url(#clip0_705_7084)">
<path d="M48.8916 8.43098L25.5663 0.0975038C25.1979 -0.0325013 24.7962 -0.0325013 24.4279 0.0975038L1.10835 8.43098C0.785749 8.54726 0.506867 8.76022 0.30974 9.04082C0.112612 9.32142 0.00683594 9.656 0.00683594 9.99892C0.00683594 10.3418 0.112612 10.6764 0.30974 10.957C0.506867 11.2376 0.785749 11.4506 1.10835 11.5669L12.5002 15.6369V20.8328C12.5002 24.0729 23.7212 24.1662 25.0004 24.1662C26.2796 24.1662 37.5006 24.0729 37.5006 20.8328V15.6369L40.0007 14.7494V16.6661C40.0007 17.1081 40.1763 17.5321 40.4888 17.8446C40.8014 18.1572 41.2253 18.3328 41.6674 18.3328H43.3341C43.7761 18.3328 44.2 18.1572 44.5126 17.8446C44.8252 17.5321 45.0008 17.1081 45.0008 16.6661V14.1661C44.9983 13.7802 44.9052 13.4003 44.7291 13.0569L48.8958 11.5669C49.2184 11.4506 49.4973 11.2376 49.6944 10.957C49.8916 10.6764 49.9973 10.3418 49.9973 9.99892C49.9973 9.656 49.8916 9.32142 49.6944 9.04082C49.4973 8.76022 49.2184 8.54726 48.8958 8.43098H48.8916ZM35.8339 18.9995C32.6597 17.5545 25.9713 17.4995 25.0004 17.4995C24.0296 17.4995 17.3411 17.5545 14.1669 18.9995V11.7394C14.6669 11.0977 18.597 9.99934 25.0004 9.99934C31.4039 9.99934 35.3339 11.0977 35.8339 11.7394V18.9995ZM25.0004 22.4995C18.8336 22.4995 14.9611 21.4812 14.2369 20.8328C14.9611 20.1845 18.8353 19.1662 25.0004 19.1662C31.1655 19.1662 35.0398 20.1845 35.7639 20.8328C35.0398 21.4812 31.1672 22.4995 25.0004 22.4995ZM40.3915 12.8327L37.5006 13.8677V11.666C37.5006 8.42598 26.2796 8.33264 25.0004 8.33264C23.7212 8.33264 12.5002 8.42598 12.5002 11.666V13.8669L1.6667 9.99934L25.0121 1.66586L41.6674 7.61763V11.8194C41.1404 12.0066 40.6913 12.3648 40.3915 12.8369V12.8327ZM43.3341 16.6661H41.6674V14.1661C41.6674 13.9451 41.7552 13.7331 41.9114 13.5768C42.0677 13.4205 42.2797 13.3327 42.5007 13.3327C42.7217 13.3327 42.9337 13.4205 43.09 13.5768C43.2463 13.7331 43.3341 13.9451 43.3341 14.1661V16.6661ZM43.3341 11.786V8.21347L48.3341 9.99934L43.3341 11.786Z" fill="#03045E"/>
<path d="M47.5008 25.833C47.4508 25.8329 47.4008 25.8373 47.3516 25.8463C39.9576 26.9959 32.4831 27.5488 25.0004 27.4997C17.5177 27.5488 10.0432 26.9959 2.64921 25.8463C2.59992 25.8379 2.55004 25.8335 2.50004 25.833C1.9167 25.833 0 26.4939 0 34.9998C0 43.5058 1.9167 44.1666 2.50004 44.1666C2.55008 44.1656 2.59996 44.1606 2.64921 44.1516C8.33072 43.2517 14.0656 42.7289 19.8162 42.5866L18.1895 46.4884C18.0673 46.7938 18.0386 47.1287 18.1071 47.4505C18.1756 47.7723 18.3382 48.0665 18.5742 48.2957C18.8102 48.525 19.109 48.6789 19.4327 48.738C19.7563 48.797 20.0902 48.7586 20.392 48.6276L21.0295 48.3551L21.3054 48.9892C21.4328 49.29 21.6462 49.5464 21.9189 49.7262C22.1915 49.906 22.5113 50.0013 22.8379 50.0001H22.8587C23.1877 49.9975 23.5085 49.8973 23.7805 49.7121C24.0524 49.527 24.2633 49.2652 24.3862 48.9601L25.8338 45.495L27.2763 48.9467C27.3982 49.2547 27.609 49.5194 27.882 49.707C28.1549 49.8946 28.4776 49.9967 28.8088 50.0001H28.8338C29.1583 50.0014 29.476 49.9073 29.7475 49.7295C30.0189 49.5517 30.2321 49.2981 30.3605 49.0001L30.6388 48.3609L31.2664 48.6301C31.5694 48.7638 31.9054 48.8039 32.2314 48.7452C32.5574 48.6865 32.8583 48.5317 33.0956 48.3007C33.333 48.0696 33.4958 47.7729 33.5632 47.4486C33.6306 47.1244 33.5995 46.7873 33.4739 46.4809L31.8789 42.6558C37.0636 42.8394 42.2323 43.3403 47.3558 44.1558C47.4037 44.1637 47.4522 44.1674 47.5008 44.1666C48.0841 44.1666 50.0008 43.5058 50.0008 34.9998C50.0008 26.4939 48.0841 25.833 47.5008 25.833ZM27.6671 29.1414C28.0132 30.4139 28.2148 31.7213 28.268 33.039C27.3398 32.6074 26.3138 32.4299 25.2946 32.5246C24.2755 32.6194 23.2997 32.9829 22.467 33.5781C22.4244 32.0817 22.2326 30.5932 21.8945 29.1347C22.904 29.1558 23.9393 29.1664 25.0004 29.1664C25.9113 29.1664 26.7954 29.1564 27.6671 29.1414ZM25.8338 42.5C25.0097 42.5 24.2041 42.2556 23.5188 41.7977C22.8336 41.3399 22.2996 40.6891 21.9842 39.9278C21.6688 39.1664 21.5863 38.3286 21.7471 37.5203C21.9079 36.7121 22.3047 35.9696 22.8874 35.3869C23.4702 34.8042 24.2126 34.4073 25.0209 34.2465C25.8291 34.0858 26.6669 34.1683 27.4283 34.4837C28.1897 34.799 28.8404 35.3331 29.2983 36.0183C29.7561 36.7035 30.0005 37.5091 30.0005 38.3332C30.0005 39.4383 29.5615 40.4981 28.7801 41.2795C27.9987 42.061 26.9389 42.5 25.8338 42.5ZM2.50004 27.9164C3.13857 30.221 3.41962 32.61 3.33339 34.9998C3.41962 37.3897 3.13857 39.7787 2.50004 42.0833C1.86152 39.7787 1.58046 37.3897 1.66669 34.9998C1.58046 32.61 1.86152 30.221 2.50004 27.9164ZM4.1834 42.2249C4.63924 40.9033 5.00008 38.6916 5.00008 34.9998C5.00008 31.3081 4.63924 29.0964 4.18257 27.773C9.47815 28.5044 14.8099 28.9448 20.1537 29.0922C20.6535 31.0203 20.8824 33.0086 20.8337 34.9998C20.8337 35.1207 20.8337 35.2357 20.8287 35.3515C20.3363 36.1686 20.0541 37.095 20.0073 38.0478C19.9605 39.0006 20.1505 39.9502 20.5603 40.8116L20.5237 40.8999C15.0563 41.0339 9.60081 41.4769 4.1834 42.2266V42.2249ZM22.8395 48.3334L22.2312 46.9334C22.1433 46.7314 21.9791 46.5725 21.7743 46.4913C21.5696 46.4101 21.3411 46.4132 21.1387 46.5L19.7362 47.12L21.6904 42.435C22.4927 43.2479 23.5162 43.8072 24.6337 44.0433L22.8395 48.3334ZM30.5288 46.5C30.3264 46.4132 30.0979 46.4101 29.8932 46.4913C29.6885 46.5725 29.5242 46.7314 29.4363 46.9334L28.8196 48.3192L27.0329 44.0416C28.1514 43.8055 29.1757 43.2459 29.9788 42.4325L31.9289 47.0992L30.5288 46.5ZM47.3341 42.4583C41.9801 41.6343 36.5814 41.1334 31.1672 40.9583L31.108 40.8149C31.6196 39.737 31.7862 38.5276 31.5851 37.3515C31.3841 36.1754 30.8252 35.0899 29.9847 34.2431C29.9782 32.5149 29.7786 30.7928 29.3897 29.1089C35.3987 28.9743 41.3928 28.4505 47.3341 27.5405C47.7208 28.1972 48.3341 30.7906 48.3341 34.9998C48.3341 39.2091 47.7166 41.8016 47.3341 42.4583Z" fill="#03045E"/>
</g>
<defs>
<clipPath id="clip0_705_7084">
<rect width="50.0008" height="50" fill="white"/>
</clipPath>
</defs>
</svg>
