<svg width="116" height="27" viewBox="0 0 116 27" fill="none" xmlns="http://www.w3.org/2000/svg">
<path d="M61.9072 1.37402H44.7197C43.4258 1.37402 42.376 2.42383 42.376 3.71777V24.0303C42.376 25.3242 43.4258 26.374 44.7197 26.374H61.9072C63.2012 26.374 64.251 25.3242 64.251 24.0303V3.71777C64.251 2.42383 63.2012 1.37402 61.9072 1.37402ZM53.3135 24.8115C52.4492 24.8115 51.751 24.1133 51.751 23.249C51.751 22.3848 52.4492 21.6865 53.3135 21.6865C54.1777 21.6865 54.876 22.3848 54.876 23.249C54.876 24.1133 54.1777 24.8115 53.3135 24.8115ZM61.9072 19.5381C61.9072 19.8604 61.6436 20.124 61.3213 20.124H45.3057C44.9834 20.124 44.7197 19.8604 44.7197 19.5381V4.30371C44.7197 3.98145 44.9834 3.71777 45.3057 3.71777H61.3213C61.6436 3.71777 61.9072 3.98145 61.9072 4.30371V19.5381Z" fill="#FDF8F2"/>
<path d="M113.168 4H92.3343C91.1841 4 90.251 4.93316 90.251 6.08333V19.9722C90.251 21.1224 91.1841 22.0556 92.3343 22.0556H100.668L99.9732 24.1389H96.8482C96.2709 24.1389 95.8065 24.6033 95.8065 25.1806C95.8065 25.7578 96.2709 26.2222 96.8482 26.2222H108.654C109.231 26.2222 109.695 25.7578 109.695 25.1806C109.695 24.6033 109.231 24.1389 108.654 24.1389H105.529L104.834 22.0556H113.168C114.318 22.0556 115.251 21.1224 115.251 19.9722V6.08333C115.251 4.93316 114.318 4 113.168 4ZM112.473 19.2778H93.0288V6.77778H112.473V19.2778Z" fill="#FDF8F2"/>
<path d="M14.0322 0H3.09473C1.80078 0 0.750977 1.0498 0.750977 2.34375V22.6562C0.750977 23.9502 1.80078 25 3.09473 25H14.0322C15.3262 25 16.376 23.9502 16.376 22.6562V2.34375C16.376 1.0498 15.3262 0 14.0322 0ZM8.56348 23.4375C7.69922 23.4375 7.00098 22.7393 7.00098 21.875C7.00098 21.0107 7.69922 20.3125 8.56348 20.3125C9.42773 20.3125 10.126 21.0107 10.126 21.875C10.126 22.7393 9.42773 23.4375 8.56348 23.4375ZM14.0322 18.1641C14.0322 18.4863 13.7686 18.75 13.4463 18.75H3.68066C3.3584 18.75 3.09473 18.4863 3.09473 18.1641V2.92969C3.09473 2.60742 3.3584 2.34375 3.68066 2.34375H13.4463C13.7686 2.34375 14.0322 2.60742 14.0322 2.92969V18.1641Z" fill="#FDF8F2"/>
</svg>
